HIERARCHY
ROOT Hips
{
    OFFSET	0	0	0
    CHANNELS 6 Xposition Yposition Zposition Zrotation Xrotation Yrotation
    JOINT LeftHip
    {
	OFFSET	3.43	0	0
	CHANNELS 3 Zrotation Xrotation Yrotation
	JOINT LeftKnee
	{
	    OFFSET	0	-18.47	0
	    CHANNELS 3 Zrotation Xrotation Yrotation
	    JOINT LeftAnkle
	    {
		OFFSET	0	-17.95	0
		CHANNELS 3 Zrotation Xrotation Yrotation
		End Site
		{
		    OFFSET	0	-3.12	0
		}
	    }
	}
    }
    JOINT RightHip
    {
	OFFSET	-3.43	0	0
	CHANNELS 3 Zrotation Xrotation Yrotation
	JOINT RightKnee
	{
	    OFFSET	0	-18.47	0
	    CHANNELS 3 Zrotation Xrotation Yrotation
	    JOINT RightAnkle
	    {
		OFFSET	0	-17.95	0
		CHANNELS 3 Zrotation Xrotation Yrotation
		End Site
		{
		    OFFSET	0	-3.12	0
		}
	    }
	}
    }
    JOINT Chest
    {
	OFFSET	0	4.57	0
	CHANNELS 3 Zrotation Xrotation Yrotation
	JOINT LeftCollar
	{
	    OFFSET	1.06	15.33	1.76
	    CHANNELS 3 Zrotation Xrotation Yrotation
	    JOINT LeftShoulder
	    {
		OFFSET	5.81	0	0
		CHANNELS 3 Zrotation Xrotation Yrotation
		JOINT LeftElbow
		{
		    OFFSET	0	-12.08	0
		    CHANNELS 3 Zrotation Xrotation Yrotation
		    JOINT LeftWrist
		    {
			OFFSET	0	-9.82	0
			CHANNELS 3 Zrotation Xrotation Yrotation
			End Site
			{
			    OFFSET	0	-7.37	0
			}
		    }
		}
	    }
	}
	JOINT RightCollar
	{
	    OFFSET	-1.06	15.33	1.76
	    CHANNELS 3 Zrotation Xrotation Yrotation
	    JOINT RightShoulder
	    {
		OFFSET	-5.81	0	0
		CHANNELS 3 Zrotation Xrotation Yrotation
		JOINT RightElbow
		{
		    OFFSET	0	-12.08	0
		    CHANNELS 3 Zrotation Xrotation Yrotation
		    JOINT RightWrist
		    {
			OFFSET	0	-9.82	0
			CHANNELS 3 Zrotation Xrotation Yrotation
			End Site
			{
			    OFFSET	0	-7.37	0
			}
		    }
		}
	    }
	}
	JOINT Neck
	{
	    OFFSET	0	17.62	0
	    CHANNELS 3 Zrotation Xrotation Yrotation
	    JOINT Head
	    {
		OFFSET	0	5.19	0
		CHANNELS 3 Zrotation Xrotation Yrotation
		End Site
		{
		    OFFSET	0	4.14001	0
		}
	    }
	}
    }
}
MOTION
Frames:	29
Frame Time:	0.033333
 -2.81	 37.40	 5.69	 2.22	 3.63	 -54.49	 9.87	 -34.81	 -11.30	 0.00	 30.46	 0.00	 -15.71	 -0.58	 12.43	 -15.05	 -1.40	 -4.97	 0.00	 32.78	 0.00	 14.70	 -2.90	 -10.72	 -11.69	 17.16	 8.70	 10.62	 -1.37	 -8.98	 10.74	 -15.69	 29.51	 180.00	 -35.41	 180.00	 2.10	 -4.93	 31.48	 -9.43	 -4.94	 1.46	 -0.43	 -19.98	 -3.05	 180.00	 -48.00	 180.00	 17.63	 -13.37	 -40.45	 6.35	 19.27	 18.49	 -12.17	 -26.17	 24.76
 -2.37	 37.55	 5.23	 1.34	 2.74	 -62.47	 13.85	 -30.35	 -6.06	 0.00	 27.28	 0.00	 -15.30	 -0.50	 15.89	 -15.50	 -1.47	 -2.79	 0.00	 29.63	 0.00	 13.91	 -6.99	 -11.72	 -12.25	 17.22	 11.70	 11.15	 -1.47	 -9.82	 12.63	 -14.18	 36.32	 180.00	 -34.81	 180.00	 2.44	 -4.25	 31.30	 -9.44	 -5.96	 2.15	 -1.28	 -24.65	 -2.13	 180.00	 -50.47	 180.00	 16.29	 -12.63	 -42.12	 4.97	 19.84	 19.04	 -12.58	 -26.18	 25.62
 -1.98	 37.61	 4.63	 0.97	 2.23	 -68.78	 16.36	 -26.58	 -3.62	 0.00	 23.75	 0.00	 -14.70	 -0.24	 20.10	 -15.91	 -1.78	 -1.71	 0.00	 26.76	 0.00	 13.42	 -12.45	 -10.99	 -12.68	 16.77	 14.12	 11.56	 -1.49	 -10.30	 14.65	 -12.92	 41.90	 180.00	 -34.13	 180.00	 2.75	 -3.51	 31.32	 -9.48	 -6.60	 2.52	 -2.31	 -28.83	 -2.09	 180.00	 -51.67	 180.00	 14.45	 -12.11	 -44.06	 3.55	 19.89	 18.66	 -12.24	 -26.55	 26.75
 -1.62	 37.64	 3.97	 0.73	 1.69	 -73.40	 17.75	 -23.54	 -3.32	 0.00	 20.52	 0.00	 -14.14	 0.57	 24.09	 -16.45	 -2.30	 -2.20	 0.00	 24.84	 0.00	 13.78	 -17.29	 -8.67	 -12.96	 16.49	 15.70	 11.87	 -1.56	 -10.45	 16.37	 -11.64	 45.85	 180.00	 -33.52	 180.00	 3.45	 -2.76	 31.12	 -9.63	 -6.84	 2.62	 -2.69	 -32.53	 -1.86	 180.00	 -51.79	 180.00	 13.20	 -11.34	 -45.31	 2.10	 19.54	 18.23	 -12.04	 -26.78	 27.50
 -1.26	 37.66	 3.33	 0.44	 1.15	 -76.33	 18.40	 -21.73	 -3.77	 0.00	 18.78	 0.00	 -13.95	 1.26	 25.63	 -16.81	 -3.16	 -3.31	 0.00	 24.34	 0.00	 14.81	 -20.53	 -5.79	 -13.06	 16.59	 16.24	 12.15	 -1.75	 -10.61	 17.46	 -10.27	 48.87	 180.00	 -33.16	 180.00	 4.15	 -1.75	 30.64	 -9.88	 -7.03	 2.79	 -2.63	 -35.59	 -1.51	 180.00	 -51.67	 180.00	 13.02	 -10.02	 -45.54	 0.88	 19.11	 18.18	 -12.28	 -26.85	 27.73
 -0.95	 37.66	 2.80	 0.48	 0.93	 -77.93	 18.61	 -22.24	 -3.82	 0.00	 20.38	 0.00	 -14.32	 0.77	 22.75	 -16.65	 -4.62	 -3.45	 0.00	 25.02	 0.00	 15.57	 -22.26	 -4.06	 -12.84	 16.53	 15.68	 12.35	 -2.00	 -10.90	 18.09	 -8.37	 51.90	 180.00	 -32.54	 180.00	 4.40	 -0.61	 30.98	 -10.09	 -7.43	 3.25	 -2.64	 -37.39	 -1.28	 180.00	 -51.38	 180.00	 13.43	 -8.35	 -45.58	 0.03	 18.93	 18.80	 -12.59	 -26.76	 27.72
 -0.74	 37.70	 2.50	 0.59	 0.80	 -78.83	 18.25	 -23.32	 -3.42	 0.00	 23.26	 0.00	 -15.06	 0.21	 17.93	 -16.33	 -5.79	 -2.48	 0.00	 25.64	 0.00	 15.66	 -22.61	 -3.87	 -12.56	 16.27	 14.80	 12.36	 -2.09	 -11.15	 18.11	 -6.25	 53.81	 180.00	 -31.73	 180.00	 4.35	 0.08	 31.43	 -10.10	 -7.86	 3.75	 -3.16	 -37.39	 -1.44	 180.00	 -51.02	 180.00	 13.49	 -7.54	 -46.03	 -0.39	 19.30	 20.08	 -12.96	 -26.14	 27.26
 -0.63	 37.81	 2.42	 0.41	 0.62	 -79.59	 17.70	 -23.19	 -2.84	 0.00	 24.67	 0.00	 -15.44	 0.55	 15.86	 -16.08	 -6.02	 -0.91	 0.00	 25.46	 0.00	 15.46	 -21.99	 -4.41	 -12.29	 15.95	 14.39	 12.30	 -2.03	 -11.15	 17.35	 -4.50	 53.55	 180.00	 -31.56	 180.00	 4.29	 -0.29	 30.84	 -10.06	 -8.08	 3.96	 -3.60	 -35.82	 -1.63	 180.00	 -50.92	 180.00	 13.09	 -7.86	 -46.51	 -0.41	 20.14	 21.52	 -13.34	 -25.12	 26.42
 -0.60	 37.92	 2.46	 0.10	 0.58	 -80.36	 17.48	 -22.16	 -2.51	 0.00	 24.30	 0.00	 -15.33	 1.03	 16.65	 -15.86	 -5.84	 0.54	 0.00	 25.02	 0.00	 15.31	 -21.28	 -4.85	 -11.97	 15.48	 14.43	 12.14	 -1.89	 -11.04	 17.00	 -3.40	 52.28	 180.00	 -31.89	 180.00	 4.49	 -0.61	 29.70	 -9.93	 -8.04	 3.94	 -3.51	 -33.70	 -1.31	 180.00	 -50.99	 180.00	 12.34	 -8.58	 -46.83	 0.00	 20.95	 22.55	 -13.58	 -24.13	 25.78
 -0.60	 37.93	 2.56	 -0.32	 0.61	 -80.63	 17.33	 -21.10	 -3.23	 0.00	 23.29	 0.00	 -15.10	 0.79	 17.84	 -15.76	 -5.64	 1.14	 0.00	 25.25	 0.00	 15.28	 -21.38	 -4.89	 -11.62	 15.19	 14.45	 11.78	 -1.72	 -10.93	 17.85	 -3.51	 50.78	 180.00	 -32.71	 180.00	 4.96	 -0.34	 28.42	 -9.64	 -7.76	 3.79	 -3.02	 -32.15	 -0.37	 180.00	 -51.18	 180.00	 12.03	 -9.34	 -46.65	 0.78	 21.40	 23.18	 -13.74	 -23.28	 25.25
 -0.56	 37.80	 2.66	 -0.71	 0.57	 -79.87	 16.90	 -21.05	 -4.54	 0.00	 23.25	 0.00	 -14.96	 -0.52	 18.15	 -15.90	 -5.78	 0.63	 0.00	 26.80	 0.00	 15.23	 -22.69	 -4.78	 -11.19	 15.21	 14.43	 11.45	 -1.62	 -10.71	 19.25	 -5.56	 48.45	 180.00	 -34.36	 180.00	 5.24	 0.21	 26.64	 -9.48	 -7.29	 3.49	 -2.56	 -31.66	 0.43	 180.00	 -51.33	 180.00	 12.31	 -9.94	 -45.95	 1.69	 21.38	 23.10	 -13.74	 -22.77	 24.65
 -0.45	 37.53	 2.74	 -0.98	 0.21	 -77.94	 16.01	 -22.27	 -5.42	 0.00	 24.45	 0.00	 -15.09	 -2.11	 17.01	 -16.50	 -6.18	 -0.77	 0.00	 29.47	 0.00	 14.96	 -24.88	 -4.93	 -11.05	 15.61	 14.77	 11.30	 -1.53	 -10.40	 20.51	 -10.02	 44.55	 180.00	 -36.60	 180.00	 5.39	 1.03	 23.68	 -9.45	 -6.89	 3.13	 -2.90	 -31.82	 -0.24	 180.00	 -51.18	 180.00	 12.66	 -10.62	 -45.39	 2.55	 20.86	 21.79	 -13.28	 -22.83	 24.07
 -0.30	 37.26	 2.78	 -1.06	 -0.55	 -75.08	 14.62	 -24.01	 -6.01	 0.00	 25.77	 0.00	 -15.55	 -2.70	 14.70	 -17.45	 -6.43	 -2.33	 0.00	 32.26	 0.00	 14.19	 -27.02	 -5.96	 -11.62	 16.38	 15.59	 11.28	 -1.42	 -10.31	 20.98	 -16.05	 40.08	 180.00	 -38.85	 180.00	 5.26	 1.79	 19.68	 -9.39	 -6.94	 3.06	 -4.32	 -31.74	 -3.18	 180.00	 -50.54	 180.00	 12.76	 -11.38	 -45.00	 3.18	 20.04	 19.33	 -12.18	 -23.42	 23.67
 -0.15	 37.08	 2.77	 -0.79	 -1.53	 -71.71	 12.96	 -25.47	 -6.35	 0.00	 25.96	 0.00	 -16.16	 -1.82	 11.80	 -18.35	 -6.35	 -3.37	 0.00	 34.30	 0.00	 12.70	 -28.49	 -8.32	 -12.79	 17.24	 16.61	 11.27	 -1.33	 -10.57	 20.31	 -21.96	 35.82	 180.00	 -40.70	 180.00	 4.65	 2.01	 15.79	 -9.17	 -7.43	 3.39	 -6.43	 -30.96	 -7.71	 180.00	 -49.51	 180.00	 12.69	 -11.97	 -44.58	 3.49	 19.49	 16.53	 -10.75	 -24.26	 23.34
 -0.06	 37.05	 2.73	 -0.21	 -2.33	 -68.34	 11.38	 -26.19	 -6.63	 0.00	 24.56	 0.00	 -16.62	 -0.05	 9.19	 -18.78	 -5.88	 -3.71	 0.00	 35.07	 0.00	 10.76	 -29.03	 -11.62	 -13.95	 17.89	 17.59	 11.08	 -1.23	 -11.03	 18.47	 -26.51	 31.43	 180.00	 -42.00	 180.00	 3.81	 1.76	 13.01	 -8.75	 -8.04	 3.98	 -8.82	 -29.71	 -12.33	 180.00	 -48.40	 180.00	 12.65	 -12.24	 -44.20	 3.55	 19.69	 14.03	 -9.46	 -24.98	 22.82
 -0.03	 37.14	 2.68	 0.52	 -2.62	 -65.71	 10.22	 -26.16	 -7.64	 0.00	 22.00	 0.00	 -16.71	 1.55	 8.10	 -18.59	 -5.35	 -3.46	 0.00	 34.70	 0.00	 9.07	 -28.53	 -14.82	 -14.64	 18.09	 18.65	 10.72	 -1.17	 -11.63	 16.32	 -28.83	 27.58	 180.00	 -42.58	 180.00	 3.25	 1.29	 11.73	 -8.17	 -8.52	 4.57	 -11.10	 -28.62	 -15.96	 180.00	 -47.46	 180.00	 12.84	 -12.09	 -43.57	 3.52	 20.35	 12.00	 -8.45	 -25.30	 22.15
 -0.04	 37.26	 2.62	 1.17	 -2.52	 -64.25	 9.61	 -25.83	 -9.19	 0.00	 19.52	 0.00	 -16.56	 2.49	 8.57	 -18.20	 -5.18	 -3.08	 0.00	 34.05	 0.00	 8.30	 -27.41	 -16.71	 -14.98	 17.92	 19.85	 10.40	 -1.18	 -12.32	 14.69	 -29.32	 25.13	 180.00	 -42.45	 180.00	 2.98	 0.92	 11.63	 -7.58	 -8.84	 4.99	 -12.96	 -28.25	 -18.36	 180.00	 -47.02	 180.00	 13.09	 -11.68	 -43.05	 3.53	 20.82	 10.20	 -7.66	 -25.40	 21.81
 -0.04	 37.33	 2.58	 1.48	 -2.27	 -63.82	 9.54	 -25.78	 -10.25	 0.00	 18.50	 0.00	 -16.44	 2.67	 9.27	 -17.97	 -5.29	 -3.21	 0.00	 33.71	 0.00	 8.43	 -26.53	 -16.92	 -14.83	 17.77	 20.62	 10.32	 -1.33	 -12.83	 13.70	 -28.43	 24.79	 180.00	 -41.78	 180.00	 2.68	 0.28	 12.18	 -7.35	 -8.99	 5.18	 -13.63	 -29.00	 -19.05	 180.00	 -47.41	 180.00	 13.32	 -11.17	 -42.68	 3.41	 20.80	 8.87	 -7.17	 -25.59	 21.89
 -0.04	 37.28	 2.55	 1.29	 -1.97	 -64.26	 9.90	 -26.33	 -10.44	 0.00	 19.83	 0.00	 -16.43	 1.83	 9.56	 -17.82	 -5.56	 -3.57	 0.00	 33.99	 0.00	 8.90	 -26.63	 -16.02	 -14.10	 17.91	 20.77	 10.42	 -1.61	 -13.03	 13.37	 -26.41	 26.81	 180.00	 -40.75	 180.00	 2.60	 -0.71	 13.50	 -7.53	 -8.92	 5.24	 -12.95	 -30.95	 -17.99	 180.00	 -48.35	 180.00	 13.67	 -10.46	 -42.22	 3.03	 20.42	 8.29	 -7.22	 -25.85	 22.19
 -0.01	 37.11	 2.56	 0.92	 -1.73	 -65.51	 10.42	 -27.40	 -10.02	 0.00	 22.88	 0.00	 -16.46	 0.23	 9.80	 -17.86	 -6.28	 -3.64	 0.00	 35.05	 0.00	 9.50	 -27.67	 -14.51	 -13.13	 18.21	 20.36	 10.58	 -1.91	 -12.94	 13.82	 -23.66	 31.10	 180.00	 -39.39	 180.00	 2.68	 -1.63	 15.93	 -7.94	 -8.72	 5.27	 -11.09	 -33.74	 -15.29	 180.00	 -49.43	 180.00	 14.09	 -9.66	 -41.98	 2.41	 19.88	 8.70	 -7.75	 -25.95	 22.49
 0.03	 36.91	 2.61	 0.34	 -1.42	 -67.35	 11.25	 -28.36	 -9.23	 0.00	 26.30	 0.00	 -16.48	 -1.53	 10.16	 -17.87	 -7.13	 -3.44	 0.00	 36.22	 0.00	 10.38	 -28.80	 -12.50	 -11.82	 18.73	 19.45	 10.61	 -2.18	 -12.77	 14.85	 -20.10	 37.11	 180.00	 -38.15	 180.00	 3.01	 -2.77	 19.34	 -8.37	 -8.42	 5.37	 -8.14	 -36.71	 -11.13	 180.00	 -50.67	 180.00	 14.52	 -9.03	 -41.78	 1.53	 19.37	 9.82	 -8.51	 -26.00	 23.03
 0.06	 36.78	 2.70	 -0.47	 -0.84	 -69.50	 12.57	 -28.57	 -8.09	 0.00	 28.84	 0.00	 -16.47	 -2.96	 10.62	 -17.57	 -7.54	 -3.11	 0.00	 36.56	 0.00	 11.56	 -29.15	 -10.25	 -10.04	 19.44	 18.18	 10.61	 -2.50	 -12.66	 15.42	 -15.51	 43.71	 180.00	 -37.54	 180.00	 3.91	 -4.38	 22.80	 -8.76	 -8.02	 5.36	 -4.27	 -39.12	 -6.25	 180.00	 -52.24	 180.00	 14.81	 -8.79	 -41.21	 0.49	 18.96	 11.11	 -9.40	 -26.04	 23.89
 0.06	 36.75	 2.82	 -1.02	 -0.10	 -71.68	 14.02	 -28.32	 -6.76	 0.00	 30.25	 0.00	 -16.37	 -3.97	 11.23	 -17.12	 -7.75	 -2.64	 0.00	 36.03	 0.00	 12.67	 -28.58	 -8.40	 -8.15	 19.95	 16.83	 10.67	 -2.86	 -12.58	 15.08	 -10.50	 49.83	 180.00	 -37.75	 180.00	 5.10	 -5.92	 25.73	 -9.15	 -7.62	 5.23	 0.00	 -40.59	 -1.60	 180.00	 -53.66	 180.00	 15.04	 -8.59	 -40.54	 -0.58	 18.56	 12.08	 -10.40	 -26.00	 24.75
 0.02	 36.84	 2.98	 -1.18	 0.44	 -73.71	 14.96	 -27.62	 -5.99	 0.00	 30.52	 0.00	 -16.12	 -4.59	 12.29	 -16.85	 -7.73	 -1.95	 0.00	 34.76	 0.00	 13.46	 -27.15	 -7.29	 -6.64	 20.27	 15.55	 10.73	 -3.20	 -12.58	 14.35	 -5.85	 54.91	 180.00	 -38.60	 180.00	 5.96	 -6.83	 27.75	 -9.48	 -7.33	 5.18	 3.86	 -41.24	 1.94	 180.00	 -54.36	 180.00	 15.41	 -8.16	 -39.84	 -1.54	 18.14	 13.08	 -11.24	 -25.71	 25.26
 -0.04	 37.01	 3.17	 -1.16	 0.73	 -75.38	 15.23	 -26.52	 -6.25	 0.00	 29.81	 0.00	 -15.70	 -4.90	 13.96	 -16.79	 -7.41	 -1.11	 0.00	 32.94	 0.00	 14.13	 -24.97	 -6.47	 -5.58	 20.55	 14.44	 10.77	 -3.48	 -12.63	 13.85	 -2.20	 58.31	 180.00	 -39.77	 180.00	 6.43	 -7.05	 28.39	 -9.75	 -7.23	 5.31	 6.63	 -41.24	 4.13	 180.00	 -54.40	 180.00	 15.80	 -7.63	 -39.25	 -2.32	 17.80	 14.45	 -11.75	 -25.13	 25.33
 -0.10	 37.20	 3.33	 -1.09	 0.89	 -76.42	 15.08	 -25.48	 -7.16	 0.00	 28.79	 0.00	 -15.26	 -4.93	 15.74	 -16.75	 -6.95	 -0.12	 0.00	 31.17	 0.00	 14.69	 -22.59	 -5.83	 -4.84	 20.73	 13.68	 10.80	 -3.66	 -12.68	 13.98	 -0.19	 59.39	 180.00	 -40.78	 180.00	 6.87	 -6.65	 27.82	 -9.91	 -7.16	 5.40	 7.71	 -40.97	 5.01	 180.00	 -54.16	 180.00	 15.95	 -7.29	 -38.95	 -2.73	 17.71	 15.62	 -12.08	 -24.77	 25.24
 -0.16	 37.30	 3.44	 -0.92	 0.92	 -76.65	 14.70	 -25.13	 -8.20	 0.00	 28.25	 0.00	 -14.96	 -4.86	 16.95	 -16.68	 -6.64	 1.02	 0.00	 30.18	 0.00	 14.94	 -21.16	 -5.59	 -4.38	 20.71	 13.13	 10.84	 -3.76	 -12.69	 14.58	 0.20	 58.94	 180.00	 -41.21	 180.00	 7.24	 -6.05	 26.77	 -10.02	 -7.01	 5.31	 7.54	 -40.72	 5.00	 180.00	 -53.77	 180.00	 15.95	 -7.05	 -38.66	 -2.80	 17.77	 16.39	 -12.29	 -24.65	 25.17
 -0.23	 37.27	 3.47	 -0.72	 0.83	 -76.09	 14.25	 -25.60	 -8.85	 0.00	 28.69	 0.00	 -14.94	 -5.12	 16.98	 -16.53	 -6.54	 2.04	 0.00	 30.34	 0.00	 14.59	 -21.84	 -6.21	 -4.26	 20.49	 12.90	 11.00	 -3.87	 -12.66	 15.57	 -1.00	 57.43	 180.00	 -41.09	 180.00	 7.41	 -5.31	 25.54	 -10.18	 -6.88	 5.12	 6.62	 -40.53	 4.05	 180.00	 -53.22	 180.00	 16.10	 -6.85	 -38.27	 -2.61	 17.99	 16.86	 -12.32	 -24.51	 25.08
 -0.30	 37.12	 3.42	 -0.59	 0.53	 -74.82	 13.74	 -26.60	 -8.93	 0.00	 29.76	 0.00	 -15.23	 -5.50	 15.75	 -16.30	 -6.44	 2.90	 0.00	 31.40	 0.00	 13.28	 -24.71	 -8.21	 -4.55	 20.20	 13.07	 11.23	 -3.88	 -12.44	 16.81	 -3.93	 54.59	 180.00	 -40.87	 180.00	 7.26	 -4.59	 23.88	 -10.38	 -6.77	 4.82	 5.08	 -40.37	 2.12	 180.00	 -52.54	 180.00	 16.39	 -7.00	 -37.88	 -2.26	 18.28	 17.03	 -12.06	 -24.29	 24.86
